<?xml version="1.0" standalone="no"?>
<!DOCTYPE svg PUBLIC "-//W3C//DTD SVG 20010904//EN"
 "http://www.w3.org/TR/2001/REC-SVG-20010904/DTD/svg10.dtd">
<svg version="1.0" xmlns="http://www.w3.org/2000/svg"
 width="176.000000pt" height="198.000000pt" viewBox="0 0 176.000000 198.000000"
 preserveAspectRatio="xMidYMid meet">
<metadata>
Created by potrace 1.15, written by Peter Selinger 2001-2017
</metadata>
<g transform="translate(0.000000,198.000000) scale(0.100000,-0.100000)"
fill="#000000" stroke="none">
<path d="M606 1647 c-273 -274 -358 -372 -411 -476 -60 -121 -77 -184 -82
-321 -6 -153 9 -226 72 -355 183 -374 625 -536 1001 -365 362 164 538 574 404
942 -43 118 -95 198 -208 323 -121 134 -497 505 -511 505 -6 0 -125 -114 -265
-253z m417 -327 c182 -56 316 -218 347 -418 31 -199 -80 -411 -265 -505 -171
-86 -357 -78 -511 21 -189 122 -278 370 -208 575 27 79 90 102 141 51 27 -27
27 -24 4 -157 -25 -146 52 -291 189 -356 46 -22 69 -26 145 -26 78 0 97 4 147
28 72 35 140 110 168 185 18 47 21 72 18 142 -5 97 -25 145 -88 214 -84 91
-204 125 -340 96 -53 -11 -62 -11 -85 4 -36 24 -49 62 -34 99 30 72 214 96
372 47z m-111 -350 c52 0 110 -101 94 -164 -9 -38 -53 -83 -92 -96 -128 -42
-232 114 -146 220 19 23 89 52 110 45 8 -3 23 -5 34 -5z"/>
</g>
</svg>
